Coordinates
version=1
nRows=13
nColumns=33
inDegrees=yes

Units are S.I. units (second, meters, Newtons, ...)
Angles are in degrees.

endheader
time	ground_thorax_rot_x	ground_thorax_rot_y	ground_thorax_rot_z	ground_thorax_tx	ground_thorax_ty	ground_thorax_tz	clav_prot_r	clav_elev_r	scapula_abduction_r	scapula_elevation_r	scapula_upward_rot_r	scapula_winging_r	shoulder_elv_r	plane_of_elev_r	axial_rot_r	elbow_flexion_r	pro_sup_r	wrist_flex_r	wrist_dev_r	clav_prot_l	clav_elev_l	scapula_abduction_l	scapula_elevation_l	scapula_upward_rot_l	scapula_winging_l	shoulder_elv_l	plane_of_elev_l	axial_rot_l	elbow_flexion_l	pro_sup_l	wrist_flex_l	wrist_dev_l	
5.7100	-29.485741	-26.018133	35.219866	56.546974	763.720625	-31.561767	25.017307	-45.000000	35.665016	-45.000000	-45.000000	-4049.437886	-1008.798475	18.891932	-150.464009	1800.932314	-187.895708	11.040857	11.706033	3.476450	26.028298	-25.257517	-45.000000	-45.000000	-2813.095908	-1348.464065	16.262143	-180.000000	361.132687	-171.952183	12.067282	-12.799076	
5.7200	-29.530334	-25.954064	35.207155	56.492587	763.598911	-31.430541	25.033785	-45.000000	35.627180	-45.000000	-45.000000	-4049.475819	-1008.791408	18.920692	-150.551837	1801.026818	-188.042495	11.076057	11.752507	3.468332	26.031989	-25.268547	-45.000000	-45.000000	-2813.049636	-1348.477195	16.279123	-180.000000	361.214399	-172.068783	12.103912	-12.838034	
5.7300	-29.573375	-25.900945	35.204730	56.410304	763.475525	-31.298309	25.051215	-45.000000	35.575973	-45.000000	-45.000000	-4049.557495	-1008.811440	19.013588	-150.671565	1801.187466	-188.225614	11.195065	11.877454	3.416386	26.026433	-25.283573	-45.000000	-45.000000	-2812.975624	-1348.504927	16.316678	-180.000000	361.333150	-172.220323	12.185404	-12.915193	
5.7400	-29.617392	-25.858640	35.199049	56.270202	763.347540	-31.161858	25.054737	-45.000000	35.576311	-45.000000	-45.000000	-4049.619326	-1008.812461	19.040539	-150.675044	1801.262520	-188.418772	11.244191	11.933090	3.395272	26.033222	-25.292006	-45.000000	-45.000000	-2812.908949	-1348.535618	16.328404	-180.000000	361.424577	-172.445045	12.240737	-12.949846	
5.7500	-29.662476	-25.831159	35.198981	56.063880	763.214585	-31.021521	25.057090	-45.000000	35.586282	-45.000000	-45.000000	-4049.673727	-1008.804176	19.041596	-150.620371	1801.300791	-188.634842	11.253306	11.960802	3.381236	26.045660	-25.291451	-45.000000	-45.000000	-2812.845139	-1348.567878	16.324324	-180.000000	361.510466	-172.743313	12.288250	-12.952020	
5.7600	-29.711636	-25.813494	35.201722	55.779738	763.076336	-30.877647	25.053957	-45.000000	35.608708	-45.000000	-45.000000	-4049.744199	-1008.799982	19.041748	-150.523145	1801.328417	-188.882044	11.273973	11.987345	3.364903	26.060764	-25.288921	-45.000000	-45.000000	-2812.766235	-1348.604377	16.324547	-180.000000	361.607862	-173.122424	12.343146	-12.953215	
5.7700	-29.763019	-25.808829	35.207439	55.412814	762.933009	-30.731422	25.057786	-45.000000	35.628377	-45.000000	-45.000000	-4049.808839	-1008.787025	19.027397	-150.402230	1801.332164	-189.154015	11.262268	11.999922	3.350548	26.078878	-25.278874	-45.000000	-45.000000	-2812.690791	-1348.640991	16.311136	-180.000000	361.705657	-173.576595	12.390961	-12.920008	
5.7800	-29.817111	-25.809404	35.214927	54.963009	762.786179	-30.585205	25.061791	-45.000000	35.639075	-45.000000	-45.000000	-4049.891300	-1008.778536	19.033975	-150.286356	1801.356216	-189.453225	11.269839	12.031766	3.323452	26.098566	-25.267504	-45.000000	-45.000000	-2812.602143	-1348.681125	16.309362	-180.000000	361.825561	-174.095727	12.445195	-12.893201	
5.7900	-29.872397	-25.815449	35.223673	54.431651	762.637938	-30.441331	25.073473	-45.000000	35.638800	-45.000000	-45.000000	-4049.960921	-1008.755634	19.022927	-150.165472	1801.362626	-189.760224	11.231480	12.050980	3.300251	26.121249	-25.249766	-45.000000	-45.000000	-2812.521921	-1348.717958	16.292295	-180.000000	361.931858	-174.660655	12.479572	-12.827081	
5.8000	-29.933397	-25.817727	35.227821	53.821717	762.491772	-30.302634	25.082198	-45.000000	35.640155	-45.000000	-45.000000	-4050.052495	-1008.740540	19.029071	-150.049510	1801.385030	-190.076139	11.223175	12.093788	3.265739	26.146210	-25.238653	-45.000000	-45.000000	-2812.422247	-1348.757816	16.292875	-180.000000	362.051880	-175.256262	12.511252	-12.785335	
5.8100	-29.995815	-25.825571	35.230551	53.135792	762.351675	-30.171337	25.098428	-45.000000	35.642602	-45.000000	-45.000000	-4050.134455	-1008.715015	19.016726	-149.931738	1801.386001	-190.384922	11.181943	12.129178	3.234846	26.173028	-25.226303	-45.000000	-45.000000	-2812.328852	-1348.793759	16.275651	-180.000000	362.156337	-175.859283	12.520982	-12.710678	
5.8200	-30.066221	-25.833282	35.225273	52.376071	762.222641	-30.049367	25.112017	-45.000000	35.642899	-45.000000	-45.000000	-4050.230316	-1008.695221	19.019335	-149.817543	1801.397817	-190.683922	11.162388	12.178056	3.196346	26.204452	-25.217316	-45.000000	-45.000000	-2812.217733	-1348.825041	16.275112	-180.000000	362.273888	-176.451367	12.517831	-12.662196	
5.8300	-30.142148	-25.846043	35.216001	51.543203	762.109964	-29.937974	25.129682	-45.000000	35.640060	-45.000000	-45.000000	-4050.318030	-1008.667069	19.008701	-149.703552	1801.394721	-190.956257	11.123615	12.219801	3.165965	26.235680	-25.207058	-45.000000	-45.000000	-2812.105649	-1348.844096	16.261724	-180.000000	362.366571	-177.004117	12.492191	-12.591439	
